HIERARCHY
ROOT Hips
{
	OFFSET -19.833931 87.443054 21.612974
	CHANNELS 6 Xposition Yposition Zposition Zrotation Yrotation Xrotation 
	JOINT Spine
	{
		OFFSET -0.000000 8.814246 -2.080107
		CHANNELS 3 Zrotation Yrotation Xrotation
		JOINT Spine1
		{
			OFFSET 0.000000 8.844141 0.000000
			CHANNELS 3 Zrotation Yrotation Xrotation
			JOINT Spine2
			{
				OFFSET 0.000000 11.682268 -0.000000
				CHANNELS 3 Zrotation Yrotation Xrotation
				JOINT Spine3
				{
					OFFSET -0.000000 11.746700 -0.000000
					CHANNELS 3 Zrotation Yrotation Xrotation
					JOINT Neck
					{
						OFFSET -0.000000 17.658264 0.000000
						CHANNELS 3 Zrotation Yrotation Xrotation
						JOINT Neck1
						{
							OFFSET -0.000000 5.101515 -0.000000
							CHANNELS 3 Zrotation Yrotation Xrotation
							JOINT Head
							{
								OFFSET 0.000000 5.101515 -0.000000
								CHANNELS 3 Zrotation Yrotation Xrotation
								JOINT HeadEnd
								{
									OFFSET -0.000000 11.655085 -0.000000
									CHANNELS 3 Zrotation Yrotation Xrotation
									End Site
									{
										OFFSET 0.000000 0.000000 0.000000
									}
								}
							}
						}
					}
					JOINT RightShoulder
					{
						OFFSET -2.625389 11.175210 -0.000000
						CHANNELS 3 Zrotation Yrotation Xrotation
						JOINT RightArm
						{
							OFFSET -0.000000 10.434715 0.000000
							CHANNELS 3 Zrotation Yrotation Xrotation
							JOINT RightForeArm
							{
								OFFSET 0.000000 29.628420 -0.000000
								CHANNELS 3 Zrotation Yrotation Xrotation
								JOINT RightHand
								{
									OFFSET 0.000000 22.857611 0.000000
									CHANNELS 3 Zrotation Yrotation Xrotation
									JOINT RightHandThumb1
									{
										OFFSET -2.867323 3.959563 2.944291
										CHANNELS 3 Zrotation Yrotation Xrotation
										JOINT RightHandThumb2
										{
											OFFSET 0.000000 3.350399 0.000000
											CHANNELS 3 Zrotation Yrotation Xrotation
											JOINT RightHandThumb3
											{
												OFFSET -0.000000 3.756509 -0.000000
												CHANNELS 3 Zrotation Yrotation Xrotation
												JOINT RightHandThumb4
												{
													OFFSET -0.000000 3.147345 -0.000000
													CHANNELS 3 Zrotation Yrotation Xrotation
													End Site
													{
														OFFSET 0.000000 0.000000 0.000000
													}
												}
											}
										}
									}
									JOINT RightHandIndex1
									{
										OFFSET -0.086752 10.030893 2.345280
										CHANNELS 3 Zrotation Yrotation Xrotation
										JOINT RightHandIndex2
										{
											OFFSET -0.000000 4.061090 0.000000
											CHANNELS 3 Zrotation Yrotation Xrotation
											JOINT RightHandIndex3
											{
												OFFSET 0.000000 3.248873 0.000000
												CHANNELS 3 Zrotation Yrotation Xrotation
												JOINT RightHandIndex4
												{
													OFFSET 0.000000 2.639709 0.000000
													CHANNELS 3 Zrotation Yrotation Xrotation
													End Site
													{
														OFFSET 0.000000 0.000000 0.000000
													}
												}
											}
										}
									}
									JOINT RightHandMiddle1
									{
										OFFSET 0.104102 9.502952 0.006768
										CHANNELS 3 Zrotation Yrotation Xrotation
										JOINT RightHandMiddle2
										{
											OFFSET -0.000000 4.568727 -0.000000
											CHANNELS 3 Zrotation Yrotation Xrotation
											JOINT RightHandMiddle3
											{
												OFFSET -0.000000 3.654981 0.000000
												CHANNELS 3 Zrotation Yrotation Xrotation
												JOINT RightHandMiddle4
												{
													OFFSET 0.000000 2.741236 0.000000
													CHANNELS 3 Zrotation Yrotation Xrotation
													End Site
													{
														OFFSET 0.000000 0.000000 0.000000
													}
												}
											}
										}
									}
									JOINT RightHandRing1
									{
										OFFSET 0.086752 8.921708 -2.267442
										CHANNELS 3 Zrotation Yrotation Xrotation
										JOINT RightHandRing2
										{
											OFFSET -0.000000 4.061090 -0.000000
											CHANNELS 3 Zrotation Yrotation Xrotation
											JOINT RightHandRing3
											{
												OFFSET 0.000000 3.654981 0.000000
												CHANNELS 3 Zrotation Yrotation Xrotation
												JOINT RightHandRing4
												{
													OFFSET -0.000000 2.741236 -0.000000
													CHANNELS 3 Zrotation Yrotation Xrotation
													End Site
													{
														OFFSET 0.000000 0.000000 0.000000
													}
												}
											}
										}
									}
									JOINT RightHandPinky1
									{
										OFFSET -0.173504 7.976997 -4.467199
										CHANNELS 3 Zrotation Yrotation Xrotation
										JOINT RightHandPinky2
										{
											OFFSET 0.000000 3.350399 0.000000
											CHANNELS 3 Zrotation Yrotation Xrotation
											JOINT RightHandPinky3
											{
												OFFSET 0.000000 2.842763 0.000000
												CHANNELS 3 Zrotation Yrotation Xrotation
												JOINT RightHandPinky4
												{
													OFFSET 0.000000 2.639709 0.000000
													CHANNELS 3 Zrotation Yrotation Xrotation
													End Site
													{
														OFFSET 0.000000 0.000000 0.000000
													}
												}
											}
										}
									}
									JOINT RightForeArmEnd
									{
										OFFSET 0.000000 0.000000 0.000000
										CHANNELS 3 Zrotation Yrotation Xrotation
										End Site
										{
											OFFSET 0.000000 0.000000 0.000000
										}
									}
								}
								JOINT RightArmEnd
								{
									OFFSET 0.000000 0.000000 0.000000
									CHANNELS 3 Zrotation Yrotation Xrotation
									End Site
									{
										OFFSET 0.000000 0.000000 0.000000
									}
								}
							}
						}
					}
					JOINT LeftShoulder
					{
						OFFSET 2.625389 11.175210 -0.000000
						CHANNELS 3 Zrotation Yrotation Xrotation
						JOINT LeftArm
						{
							OFFSET 0.000000 10.813635 0.000000
							CHANNELS 3 Zrotation Yrotation Xrotation
							JOINT LeftForeArm
							{
								OFFSET 0.000000 28.724781 0.000000
								CHANNELS 3 Zrotation Yrotation Xrotation
								JOINT LeftHand
								{
									OFFSET 0.644384 25.716167 -0.328871
									CHANNELS 3 Zrotation Yrotation Xrotation
									JOINT LeftHandThumb1
									{
										OFFSET 2.867323 3.959563 2.944291
										CHANNELS 3 Zrotation Yrotation Xrotation
										JOINT LeftHandThumb2
										{
											OFFSET 0.000000 3.350399 0.000000
											CHANNELS 3 Zrotation Yrotation Xrotation
											JOINT LeftHandThumb3
											{
												OFFSET -0.000000 3.756509 -0.000000
												CHANNELS 3 Zrotation Yrotation Xrotation
												JOINT LeftHandThumb4
												{
													OFFSET -0.000000 3.100000 0.000000
													CHANNELS 3 Zrotation Yrotation Xrotation
													End Site
													{
														OFFSET 0.000000 0.000000 0.000000
													}
												}
											}
										}
									}
									JOINT LeftHandIndex1
									{
										OFFSET 0.086752 10.030893 2.345280
										CHANNELS 3 Zrotation Yrotation Xrotation
										JOINT LeftHandIndex2
										{
											OFFSET -0.000000 4.061090 0.000000
											CHANNELS 3 Zrotation Yrotation Xrotation
											JOINT LeftHandIndex3
											{
												OFFSET 0.000000 3.248873 0.000000
												CHANNELS 3 Zrotation Yrotation Xrotation
												JOINT LeftHandIndex4
												{
													OFFSET -0.000000 2.639709 0.000000
													CHANNELS 3 Zrotation Yrotation Xrotation
													End Site
													{
														OFFSET 0.000000 0.000000 0.000000
													}
												}
											}
										}
									}
									JOINT LeftHandMiddle1
									{
										OFFSET -0.104102 9.502952 0.006768
										CHANNELS 3 Zrotation Yrotation Xrotation
										JOINT LeftHandMiddle2
										{
											OFFSET -0.000000 4.568727 0.000000
											CHANNELS 3 Zrotation Yrotation Xrotation
											JOINT LeftHandMiddle3
											{
												OFFSET 0.000000 3.654981 -0.000000
												CHANNELS 3 Zrotation Yrotation Xrotation
												JOINT LeftHandMiddle4
												{
													OFFSET -0.000000 2.741236 0.000000
													CHANNELS 3 Zrotation Yrotation Xrotation
													End Site
													{
														OFFSET 0.000000 0.000000 0.000000
													}
												}
											}
										}
									}
									JOINT LeftHandRing1
									{
										OFFSET -0.086752 8.921708 -2.267442
										CHANNELS 3 Zrotation Yrotation Xrotation
										JOINT LeftHandRing2
										{
											OFFSET -0.000000 4.061090 0.000000
											CHANNELS 3 Zrotation Yrotation Xrotation
											JOINT LeftHandRing3
											{
												OFFSET 0.000000 3.654981 0.000000
												CHANNELS 3 Zrotation Yrotation Xrotation
												JOINT LeftHandRing4
												{
													OFFSET 0.000000 2.741236 -0.000000
													CHANNELS 3 Zrotation Yrotation Xrotation
													End Site
													{
														OFFSET 0.000000 0.000000 0.000000
													}
												}
											}
										}
									}
									JOINT LeftHandPinky1
									{
										OFFSET 0.173504 7.976997 -4.467199
										CHANNELS 3 Zrotation Yrotation Xrotation
										JOINT LeftHandPinky2
										{
											OFFSET 0.000000 3.350399 -0.000000
											CHANNELS 3 Zrotation Yrotation Xrotation
											JOINT LeftHandPinky3
											{
												OFFSET -0.000000 2.842763 0.000000
												CHANNELS 3 Zrotation Yrotation Xrotation
												JOINT LeftHandPinky4
												{
													OFFSET -0.000000 2.639709 0.000000
													CHANNELS 3 Zrotation Yrotation Xrotation
													End Site
													{
														OFFSET 0.000000 0.000000 0.000000
													}
												}
											}
										}
									}
									JOINT LeftForeArmEnd
									{
										OFFSET 0.000000 0.000000 0.000000
										CHANNELS 3 Zrotation Yrotation Xrotation
										End Site
										{
											OFFSET 0.000000 0.000000 0.000000
										}
									}
								}
								JOINT LeftArmEnd
								{
									OFFSET 0.000000 0.000000 0.000000
									CHANNELS 3 Zrotation Yrotation Xrotation
									End Site
									{
										OFFSET 0.000000 0.000000 0.000000
									}
								}
							}
						}
					}
				}
			}
		}
	}
	JOINT RightUpLeg
	{
		OFFSET -11.289943 0.000000 0.000000
		CHANNELS 3 Zrotation Yrotation Xrotation
		JOINT RightLeg
		{
			OFFSET -0.000000 -38.200325 0.000000
			CHANNELS 3 Zrotation Yrotation Xrotation
			JOINT RightFoot
			{
				OFFSET -0.000000 -39.900856 -0.000000
				CHANNELS 3 Zrotation Yrotation Xrotation
				JOINT RightToeBase
				{
					OFFSET -0.000000 -0.000000 15.261641
					CHANNELS 3 Zrotation Yrotation Xrotation
					JOINT RightToeBaseEnd
					{
						OFFSET -0.000000 0.000000 7.370709
						CHANNELS 3 Zrotation Yrotation Xrotation
						End Site
						{
							OFFSET 0.000000 0.000000 0.000000
						}
					}
				}
				JOINT RightLegEnd
				{
					OFFSET 0.000000 0.000000 0.000000
					CHANNELS 3 Zrotation Yrotation Xrotation
					End Site
					{
						OFFSET 0.000000 0.000000 0.000000
					}
				}
			}
			JOINT RightUpLegEnd
			{
				OFFSET 0.000000 0.000000 0.000000
				CHANNELS 3 Zrotation Yrotation Xrotation
				End Site
				{
					OFFSET 0.000000 0.000000 0.000000
				}
			}
		}
	}
	JOINT LeftUpLeg
	{
		OFFSET 11.315661 0.000000 -0.000000
		CHANNELS 3 Zrotation Yrotation Xrotation
		JOINT LeftLeg
		{
			OFFSET -0.000000 -38.200325 -0.000000
			CHANNELS 3 Zrotation Yrotation Xrotation
			JOINT LeftFoot
			{
				OFFSET 0.000000 -39.900856 -0.000000
				CHANNELS 3 Zrotation Yrotation Xrotation
				JOINT LeftToeBase
				{
					OFFSET 0.000000 -0.000000 15.261641
					CHANNELS 3 Zrotation Yrotation Xrotation
					JOINT LeftToeBaseEnd
					{
						OFFSET 0.000000 -0.000000 7.539996
						CHANNELS 3 Zrotation Yrotation Xrotation
						End Site
						{
							OFFSET 0.000000 0.000000 0.000000
						}
					}
				}
				JOINT LeftLegEnd
				{
					OFFSET 0.000000 0.000000 0.000000
					CHANNELS 3 Zrotation Yrotation Xrotation
					End Site
					{
						OFFSET 0.000000 0.000000 0.000000
					}
				}
			}
			JOINT LeftUpLegEnd
			{
				OFFSET 0.000000 0.000000 0.000000
				CHANNELS 3 Zrotation Yrotation Xrotation
				End Site
				{
					OFFSET 0.000000 0.000000 0.000000
				}
			}
		}
	}
}
MOTION
Frames: 5
Frame Time: 0.016667
0.000000 86.173073 0.000000 4.299706 0.268208 -7.097672 -8.138910 1.415882 -0.501093 14.969743 -4.986477 10.393133 -18.977316 3.765863 1.451039 4.191943 -0.820174 -0.026746 5.330935 5.319361 10.245769 -3.058134 4.096265 -7.856700 -0.884414 2.925234 -23.483372 -0.000000 0.000000 -0.000000 96.794548 -0.452405 3.697087 71.595825 -34.005367 -10.252327 2.613487 16.506645 33.556511 4.896969 16.739388 -10.989886 10.039283 -1.787270 40.137466 0.000000 0.000000 -24.480000 0.000000 0.000000 -17.000000 0.000000 -0.000000 0.000000 13.474063 -0.000000 -9.998754 9.431844 0.000000 0.000000 9.431844 0.000000 0.000000 -0.000000 0.000000 -0.000000 14.310911 0.000000 -12.117425 10.017637 -0.000000 0.000000 10.017637 0.000000 -0.000000 -0.000000 -0.000000 0.000000 16.702457 0.000000 -13.374759 11.691721 0.000000 0.000000 11.691721 -0.000000 -0.000000 0.000000 0.000000 0.000000 18.303183 0.000000 -16.208984 12.812227 -0.000000 0.000000 12.812227 0.000000 -0.000000 0.000000 -0.000000 0.000000 0.000000 -0.000000 -0.000000 0.000000 0.000000 -0.000000 -93.419373 0.305430 3.692236 -58.119640 34.383709 -1.479927 -3.132394 -16.410666 54.021282 0.345754 -19.841894 -14.396710 -7.651653 1.517517 41.228928 0.000000 -0.000000 -18.719999 0.000000 -0.000000 -13.000000 0.000000 -0.000000 0.000000 -7.052995 0.000000 -11.588725 -4.937097 0.000000 0.000000 -4.937097 -0.000000 0.000000 -0.000000 -0.000000 -0.000000 -8.928932 0.000000 -13.154869 -6.250252 -0.000000 0.000000 -6.250252 0.000000 -0.000000 0.000000 -0.000000 -0.000000 -13.184093 0.000000 -12.977899 -9.228866 -0.000000 -0.000000 -9.228866 -0.000000 0.000000 0.000000 0.000000 -0.000000 -16.410326 0.000000 -13.409649 -11.487228 -0.000000 -0.000000 -11.487228 0.000000 -0.000000 -0.000000 -0.000000 0.000000 -0.000000 0.000000 0.000000 0.000000 -0.000000 -0.000000 -16.555931 3.881751 -2.063656 -0.437959 -1.141036 20.999813 8.242571 -11.888931 17.012325 -0.798321 -0.807249 -27.538485 0.000000 -0.000000 0.000000 0.000000 -0.000000 0.000000 0.000000 0.000000 -0.000000 -1.257158 -2.234490 1.752836 0.201865 0.647150 17.324553 2.536021 0.751004 14.193521 -0.373871 0.147749 -28.911343 -0.000000 -0.000000 -0.000000 0.000000 0.000000 -0.000000 0.000000 0.000000 -0.000000 
-1.028506 86.113503 0.320368 4.862842 0.921745 -7.658684 -8.475978 1.658658 -0.567560 14.967556 -5.147811 11.577539 -19.528172 3.958142 0.705444 4.132334 -0.725633 0.081406 5.330978 4.795974 10.469312 -3.118420 3.547276 -7.688137 -0.794590 2.908916 -23.671873 0.000000 0.000000 0.000000 97.001526 -0.472028 3.735581 71.314743 -34.799435 -9.897882 2.708039 16.504002 33.769939 4.888221 16.920670 -11.137513 10.039283 -1.787270 40.137466 0.000000 0.000000 -24.480000 0.000000 -0.000000 -17.000000 0.000000 -0.000000 -0.000000 13.601370 0.000000 -10.099744 9.520959 -0.000000 -0.000000 9.520959 -0.000000 0.000000 -0.000000 0.000000 -0.000000 14.384994 0.000000 -12.188918 10.069495 0.000000 0.000000 10.069495 -0.000000 0.000000 0.000000 -0.000000 0.000000 16.650578 0.000000 -13.411538 11.655404 -0.000000 0.000000 11.655404 -0.000000 -0.000000 -0.000000 -0.000000 0.000000 18.116230 0.000000 -16.221853 12.681361 0.000000 -0.000000 12.681361 -0.000000 0.000000 -0.000000 0.000000 0.000000 0.000000 -0.000000 -0.000000 0.000000 0.000000 -0.000000 -93.396118 0.298693 3.609899 -57.928345 34.249065 -0.782370 -3.153589 -16.742670 54.038322 0.437162 -19.796577 -14.137285 -7.651653 1.517517 41.228928 0.000000 0.000000 -18.719999 0.000000 0.000000 -13.000000 -0.000000 0.000000 -0.000000 -7.199211 -0.000000 -11.615060 -5.039447 0.000000 -0.000000 -5.039447 0.000000 0.000000 0.000000 0.000000 -0.000000 -9.029236 -0.000000 -13.174200 -6.320465 0.000000 -0.000000 -6.320465 0.000000 0.000000 0.000000 0.000000 -0.000000 -13.186414 -0.000000 -12.989090 -9.230490 0.000000 -0.000000 -9.230490 0.000000 0.000000 0.000000 0.000000 -0.000000 -16.315199 0.000000 -13.400322 -11.420639 -0.000000 0.000000 -11.420639 -0.000000 -0.000000 0.000000 0.000000 0.000000 -0.000000 0.000000 0.000000 -0.000000 -0.000000 -0.000000 -16.471628 2.740804 -1.402687 -0.498141 -1.230914 22.034924 7.555825 -11.267538 15.172773 -0.789250 -0.659635 -26.963409 0.000000 -0.000000 0.000000 0.000000 -0.000000 0.000000 -0.000000 -0.000000 0.000000 -1.139226 -2.647289 3.167858 0.214449 0.750014 15.957206 1.842788 0.272197 14.678349 -0.328164 0.092414 -29.151619 -0.000000 0.000000 -0.000000 0.000000 0.000000 -0.000000 0.000000 -0.000000 -0.000000 
-2.112363 86.150635 0.627421 4.731747 1.465505 -8.261834 -8.459134 1.881706 -0.576881 15.928369 -5.684512 12.780663 -20.913511 4.301488 -0.220221 4.249734 -0.644935 0.229149 5.286989 4.328998 10.570329 -3.250448 3.006568 -7.563339 -0.794034 2.862120 -23.820761 0.000000 0.000000 -0.000000 97.210686 -0.497409 3.815251 70.815590 -35.562775 -9.439137 2.777511 16.453594 34.096279 4.825771 16.486715 -11.473272 10.338415 -1.814722 40.003895 0.000000 0.000000 -25.200001 0.000000 0.000000 -17.500000 -0.000000 -0.000000 0.000000 13.771818 -0.000000 -9.806544 9.640273 -0.000000 -0.000000 9.640273 -0.000000 -0.000000 0.000000 0.000000 0.000000 14.561511 -0.000000 -11.971748 10.193058 -0.000000 -0.000000 10.193058 -0.000000 -0.000000 0.000000 -0.000000 0.000000 16.838346 -0.000000 -13.266510 11.786842 -0.000000 -0.000000 11.786842 -0.000000 0.000000 0.000000 -0.000000 0.000000 18.306656 -0.000000 -16.085684 12.814659 -0.000000 0.000000 12.814659 -0.000000 -0.000000 0.000000 -0.000000 0.000000 0.000000 -0.000000 -0.000000 0.000000 0.000000 -0.000000 -93.436600 0.294413 3.509353 -57.847038 34.064346 -0.201894 -3.178763 -17.106958 53.953453 0.556073 -19.815493 -13.801538 -7.651653 1.517517 41.228928 0.000000 0.000000 -18.719999 -0.000000 -0.000000 -13.000000 0.000000 0.000000 -0.000000 -7.293981 -0.000000 -11.608840 -5.105787 0.000000 0.000000 -5.105787 -0.000000 0.000000 -0.000000 0.000000 0.000000 -9.056412 -0.000000 -13.154701 -6.339489 -0.000000 0.000000 -6.339489 -0.000000 0.000000 0.000000 0.000000 -0.000000 -13.055717 -0.000000 -12.965458 -9.139003 0.000000 -0.000000 -9.139003 -0.000000 -0.000000 0.000000 0.000000 -0.000000 -16.024754 -0.000000 -13.377451 -11.217327 0.000000 0.000000 -11.217327 0.000000 0.000000 -0.000000 -0.000000 0.000000 -0.000000 -0.000000 0.000000 0.000000 -0.000000 -0.000000 -15.718469 1.632186 -0.641742 -0.535837 -1.282531 22.677795 6.755089 -10.508307 14.381619 -0.732283 -0.565853 -26.790565 0.000000 -0.000000 0.000000 0.000000 -0.000000 0.000000 0.000000 -0.000000 0.000000 -0.269575 -2.999578 4.483637 0.222730 0.841672 14.823063 1.114194 -0.281570 15.089627 -0.286971 0.045869 -29.344271 -0.000000 0.000000 -0.000000 0.000000 0.000000 -0.000000 0.000000 -0.000000 0.000000 
-3.197315 86.200951 0.874126 4.245542 2.078440 -8.665682 -8.000989 1.924216 -0.259819 16.453304 -5.913960 13.063699 -21.436398 4.540193 -0.496002 3.965579 -0.557073 0.280620 5.267495 3.983652 10.555312 -3.346731 2.561951 -7.461798 -0.787566 2.843897 -23.872290 -0.000000 0.000000 -0.000000 97.334282 -0.530783 3.997211 70.173584 -36.263084 -8.852565 2.781292 16.270473 34.488834 4.762151 15.819480 -11.750556 10.338415 -1.814722 40.003895 -0.000000 -0.000000 -25.200001 -0.000000 -0.000000 -17.500000 -0.000000 -0.000000 0.000000 13.799525 -0.000000 -9.560221 9.659668 0.000000 0.000000 9.659668 -0.000000 -0.000000 0.000000 0.000000 0.000000 14.617263 0.000000 -11.826308 10.232084 0.000000 0.000000 10.232084 -0.000000 -0.000000 -0.000000 -0.000000 0.000000 16.956793 -0.000000 -13.252908 11.869755 -0.000000 -0.000000 11.869755 0.000000 -0.000000 -0.000000 0.000000 0.000000 18.490738 0.000000 -16.158926 12.943517 0.000000 -0.000000 12.943517 0.000000 0.000000 -0.000000 -0.000000 0.000000 0.000000 -0.000000 -0.000000 0.000000 -0.000000 -0.000000 -93.533234 0.294625 3.435673 -57.903603 33.707539 0.104441 -3.176329 -17.293230 53.824074 0.745098 -19.843309 -13.459505 -7.651653 1.517517 41.228928 -0.000000 -0.000000 -18.719999 -0.000000 -0.000000 -13.000000 0.000000 0.000000 0.000000 -7.251858 -0.000000 -11.511077 -5.076300 -0.000000 -0.000000 -5.076300 -0.000000 0.000000 0.000000 0.000000 -0.000000 -8.997066 -0.000000 -13.142130 -6.297946 0.000000 -0.000000 -6.297946 0.000000 0.000000 0.000000 0.000000 -0.000000 -12.956680 -0.000000 -13.112556 -9.069676 0.000000 -0.000000 -9.069676 0.000000 -0.000000 0.000000 0.000000 0.000000 -15.906440 -0.000000 -13.660398 -11.134508 -0.000000 0.000000 -11.134508 -0.000000 0.000000 -0.000000 -0.000000 0.000000 -0.000000 -0.000000 0.000000 0.000000 -0.000000 -0.000000 -14.534242 0.873269 0.015126 -0.557211 -1.310819 23.032145 6.030560 -10.430402 13.948708 -0.673427 -0.505508 -26.834061 0.000000 -0.000000 0.000000 0.000000 -0.000000 0.000000 0.000000 0.000000 0.000000 0.885908 -3.750460 5.103613 0.239666 0.928396 14.475655 0.339921 -0.504793 15.294028 -0.228708 0.014577 -29.560026 -0.000000 -0.000000 -0.000000 0.000000 0.000000 -0.000000 0.000000 -0.000000 0.000000 
-4.263319 86.245903 1.058964 3.460840 2.895702 -8.702684 -7.262079 1.782437 0.223404 16.545042 -5.799891 12.206369 -20.952917 4.690118 0.121521 3.410175 -0.477958 0.194880 5.124684 3.706621 10.569139 -3.440421 2.182395 -7.401308 -0.762735 2.855888 -23.863611 0.000000 -0.000000 -0.000000 97.164139 -0.544212 4.186981 69.498833 -36.942715 -8.127294 2.730083 16.134333 34.922432 4.772895 14.844481 -12.017661 10.338415 -1.814722 40.003895 -0.000000 -0.000000 -25.200001 -0.000000 -0.000000 -17.500000 0.000000 -0.000000 -0.000000 13.747400 -0.000000 -9.513513 9.623180 -0.000000 -0.000000 9.623180 0.000000 -0.000000 0.000000 0.000000 0.000000 14.575139 -0.000000 -11.813194 10.202598 -0.000000 0.000000 10.202598 -0.000000 -0.000000 0.000000 -0.000000 0.000000 16.936237 -0.000000 -13.319115 11.855366 0.000000 -0.000000 11.855366 0.000000 -0.000000 0.000000 -0.000000 0.000000 18.503241 -0.000000 -16.340567 12.952269 0.000000 -0.000000 12.952269 0.000000 -0.000000 -0.000000 0.000000 -0.000000 0.000000 -0.000000 -0.000000 0.000000 0.000000 -0.000000 -93.703712 0.304816 3.457231 -58.137020 33.306778 0.167822 -3.140888 -17.260014 53.575844 1.122885 -20.123411 -13.206334 -7.651653 1.517517 41.228928 -0.000000 -0.000000 -18.719999 -0.000000 -0.000000 -13.000000 0.000000 -0.000000 0.000000 -7.180686 0.000000 -11.357170 -5.026480 0.000000 -0.000000 -5.026480 -0.000000 0.000000 0.000000 0.000000 -0.000000 -8.896277 0.000000 -12.940635 -6.227394 -0.000000 0.000000 -6.227394 -0.000000 0.000000 0.000000 -0.000000 -0.000000 -12.765300 0.000000 -12.844560 -8.935710 -0.000000 -0.000000 -8.935710 0.000000 0.000000 -0.000000 0.000000 0.000000 -15.608449 0.000000 -13.328113 -10.925915 0.000000 -0.000000 -10.925915 0.000000 0.000000 0.000000 0.000000 0.000000 0.000000 -0.000000 0.000000 0.000000 0.000000 -0.000000 -13.023977 0.083645 0.550249 -0.557322 -1.318895 22.909864 5.334309 -10.813121 13.763912 -0.621561 -0.459123 -26.956030 0.000000 -0.000000 0.000000 0.000000 -0.000000 0.000000 -0.000000 -0.000000 0.000000 2.291918 -4.802887 5.056667 0.258475 1.000598 14.484859 -0.434118 -0.569695 15.289308 -0.170613 0.020278 -29.606230 -0.000000 0.000000 -0.000000 0.000000 -0.000000 -0.000000 -0.000000 0.000000 -0.000000 
